<svg xmlns="http://www.w3.org/2000/svg" xmlns:xlink="http://www.w3.org/1999/xlink" version="1.1" width="127.901" height="31.253" enable-background="new 0 0 127.901 31.253" xml:space="preserve" ><rect id="backgroundrect" width="100%" height="100%" x="0" y="0" fill="none" stroke="none"/><g class="currentLayer" style=""><title>Layer 1</title><path fill-rule="evenodd" clip-rule="evenodd" fill="#FFFFFF" d="M88.248,0c0,0,0,12.837,0,19.222c-1.367,0-4.1,0-4.1,0v-1.479 c-0.355,0.33-0.506,0.824-0.874,1.143c-0.898,0.777-2.825,0.945-3.831,0.067c-0.539-0.47-1.237-1.685-1.344-3.159 c-0.094-1.29,0-2.887,0-4.436c0-3.317-0.394-6.646,1.748-7.662c0.048-0.022,0.197-0.066,0.201-0.067 c1.651-0.482,3.555,0.253,4.033,1.546L84.069,0H88.248z M82.266,9.543c0,0.617,0,1.549,0,2.42c0,1.112-0.277,4.068,0.403,4.369 c0.787,0.347,1.307-0.438,1.412-1.277c0.134-1.081,0-3.045,0-4.638c0-1.645,0.2-3.885-1.076-3.697 C82.008,6.869,82.266,8.417,82.266,9.543z" id="svg_1"/><path fill-rule="evenodd" clip-rule="evenodd" fill="#FFFFFF" d="M106.461,0.471c-1.246,0.417-2.492,0.623-3.831,1.143 c-1.415,0.548-3.249,1.539-2.42,3.428c0.451,1.026,1.501,2.004,2.487,2.755c2.821,2.15,7.075,3.997,10.552,5.108 c0.977,3.81,0.078,8.173-1.68,11.358c-0.914,1.657-2.209,3.338-3.629,4.839c-0.33,0.349-1.203,1.307-1.412,1.344 c-0.301,0.054-0.849-0.275-1.277-0.403c-1.371-0.41-2.496-0.708-3.764-1.143c0.388-1.444,0.647-3.068,0.538-4.705 c-0.266-3.974-2.881-6.505-5.242-8.334c1.004-0.453,1.893-1.02,2.285-2.084c-0.306-0.636-0.898-1.043-1.411-1.545 c-1.74-1.703-3.762-3.876-3.697-7.326C94.055-0.094,101.325-0.162,106.461,0.471z" id="svg_2"/><path fill-rule="evenodd" clip-rule="evenodd" fill="#3C9E49" d="M30.814819576807892,3.352956890284643 c0,1.702 0,3.4050000000000002 0,5.107 c-0.5748407832982028,-0.52 -0.9266624245284296,-1.135 -1.8425913074600033,-1.411 c-1.7233297341616214,-0.52 -3.8533414332707263,-0.10400000000000002 -4.648816127170934,1.075 c-0.8407940917535967,1.247 -0.6416272643452966,4.018 -0.6416272643452966,6.25 c0,2.323 -0.20035944314128262,4.907 0.4806241403924813,6.385 c0.3744813401569203,0.8130000000000006 1.3738933243973621,1.6830000000000007 2.2445028094755513,1.8820000000000001 c1.9201113301039519,0.43900000000000083 3.6816047677210557,-0.5940000000000006 4.407907749108203,-1.7480000000000002 c0,0.4930000000000003 0,0.986 0,1.479 c1.630305706988885,0 3.2594187982447833,0 4.889724505233666,0 C35.46363570397882,16.189956890284645 35.784449336151475,9.536956890284642 35.54473357382172,3.352956890284643 C33.96690295908413,3.352956890284643 32.39145757581252,3.352956890284643 30.814819576807892,3.352956890284643 zM30.814819576807892,11.216956890284642 c0.21586344767007198,1.306 0,3.025 0,4.974 c0,1.393 0.21586344767007198,4.15 -1.7638786690830732,3.36 c-0.8133639298949649,-0.32500000000000095 -0.4806241403924813,-2.7720000000000002 -0.4806241403924813,-4.503 c0,-0.8480000000000006 0,-1.649 0,-2.487 c0,-0.6700000000000021 -0.22659698926692656,-1.909 0.15981050821983198,-2.352 C29.046170444792885,9.848956890284644 29.743850648588413,9.952956890284643 29.93347655013286,10.006956890284643 C30.44510869958291,10.152956890284642 30.730143859766038,10.696956890284643 30.814819576807892,11.216956890284642 z" id="svg_3" class="" transform="rotate(-179.22763061523438 29.679416656494137,13.048561096191406) "/><path fill-rule="evenodd" clip-rule="evenodd" fill="#FFFFFF" d="M44.09,0.739c0,1.075,0,3.227,0,3.227l1.076,0l0.004,3.087 l-1.08,0.005l0.005,9.048c0,0-0.083,0.593,1.071,0.294c0,0.241,0,2.106,0,3.159c-2.59,0.071-4.784,0.18-5.175-1.949 c-0.122-0.66,0-1.628,0-2.554c0-2.465,0-7.931,0-7.931L38.912,7.13l0.003-3.087l1.071,0.002c0,0,0.002-2.414,0.004-3.306 C41.357,0.739,42.724,0.739,44.09,0.739z" id="svg_6"/><path fill-rule="evenodd" clip-rule="evenodd" fill="#FFFFFF" d="M53.234,3.563L53.23,8.603c0,0-2.277-0.081-2.688,0.806 c-0.418,0.904-0.234,9.813-0.234,9.813s-2.678,0-4.067,0c0-5.108,0-10.216,0-15.324c1.322,0,2.644,0,3.966,0 c0,0.874,0,1.748,0,2.622C50.821,5.23,51.5,3.733,53.234,3.563z" id="svg_7"/><path fill-rule="evenodd" clip-rule="evenodd" fill="#FFFFFF" d="M64.32,12.165c-1.994,0-5.981,0-5.981,0s-0.638,4.308,0.739,4.503 c1.412,0.201,1.075-3.092,1.075-3.092l4.191,0c0,0-0.112,2.878-0.628,3.965c-1.177,2.474-6.094,2.758-8.2,0.874 c-0.661-0.591-1.236-1.636-1.344-2.689c-0.119-1.152-0.269-8.36,0.336-9.678c0.63-1.374,2.231-2.336,4.167-2.486 c2.019-0.157,3.603,0.395,4.503,1.276C64.701,6.333,64.279,8.925,64.32,12.165z M58.406,6.855c-0.125,0.703-0.067,2.419-0.067,2.419 l1.819,0.002c0,0,0.196-2.331-0.408-2.825C59.193,6.274,58.673,6.539,58.406,6.855z" id="svg_8"/><path fill-rule="evenodd" clip-rule="evenodd" fill="#FFFFFF" d="M76.284,19.222c-1.367,0-4.18,0-4.18,0s0.013-6.213,0.013-9.275 c0-0.965,0.206-2.063-0.471-2.622c-1.497-0.372-1.345,1.319-1.345,2.487c0,3.056,0,6.71,0,9.41c-1.366,0-4.178,0-4.178,0 l0.012-15.35l4.032,0.025c0,0,0,1.031,0,1.546c0.435-0.436,0.841-1.202,1.479-1.546c1.994-1.073,4.358,0.313,4.638,2.218 c0.128,0.875,0,2.091,0,3.293C76.284,12.274,76.284,16.835,76.284,19.222z" id="svg_9"/><path fill-rule="evenodd" clip-rule="evenodd" fill="#3C9E49" d="M11.953,4.167h4.043c0,0,0,6.267,0,9.41 c0,1.327-0.049,2.619,1.008,2.487c0.895-0.112,0.874-1.127,0.874-2.353c0-3.157,0-9.544,0-9.544h4.1c0,0,0,10.149,0,15.19 c-1.322,0-2.644,0-3.965,0c0-0.516,0-1.031,0-1.546c-0.469,0.366-0.709,1.046-1.411,1.479c-2.018,1.244-4.379-0.144-4.638-2.084 c-0.121-0.91,0-2.102,0-3.226c0-2.929,0-6.964,0-9.611C11.958,4.273,11.953,4.167,11.953,4.167z" id="svg_10" class=""/><path fill-rule="evenodd" clip-rule="evenodd" fill="#3C9E49" d="M122.323,5.511c-0.012-0.057,0.026-0.063,0.067-0.067 c2.55,1.281,5.481,2.49,5.511,6.049c0.014,1.616-0.599,2.938-1.412,3.898c-1.364,1.614-3.703,2.483-6.183,2.89 c-0.685,1.445-1.279,2.84-2.084,4.1c-2.373,3.71-5.825,6.475-9.611,8.872c0.037-0.253,0.352-0.589,0.605-0.874 c3.638-4.075,7.44-8.708,6.856-16.87c3.825,0.146,7.451-0.621,7.527-3.966C123.635,8.044,122.926,6.604,122.323,5.511z" id="svg_11"/></g></svg>